James Bond HD Movie Release by CurrentHD

General: James Bond From Russia With Love(1963)HDTVrip(Dual audio)[Eng Hindi]Current_HD

Format                           : AVI
Format/Info                      : Audio Video Interleave
Format profile                   : OpenDML
File size                        : 899 MiB
Duration                         : 1h 55mn
Overall bit rate                 : 1 092 Kbps
Writing application              : AVI-Mux GUI 


Video
ID                               : 0
Format                           : MPEG-4 Visual
Format profile                   : Advanced Simple@L5
Format settings, BVOP            : Yes
Format settings, QPel            : No
Format settings, GMC             : No warppoints
Format settings, Matrix          : Default (H.263)
Codec ID                         : DX50
Codec ID/Hint                    : DivX 5
Duration                         : 1h 55mn
Bit rate                         : 865 Kbps
Width                            : 680 pixels
Height                           : 368 pixels
Display aspect ratio             : 16:9
Frame rate                       : 23.976 fps
Color space                      : YUV
Chroma subsampling               : 4:2:0
Bit depth                        : 8 bits
Scan type                        : Progressive
Bits/(Pixel*Frame)               : 0.144
Stream size                      : 712 MiB (79%)
Writing library                  : XviD 1.1.0 (UTC 2005-11-22)


Audio #1
ID                               : 1
Format                           : MPEG Audio
Format version                   : Version 1
Format profile                   : Layer 3
Mode                             : Joint stereo
Mode extension                   : MS Stereo
Codec ID                         : 55
Codec ID/Hint                    : MP3
Duration                         : 1h 55mn
Bit rate mode                    : Constant
Bit rate                         : 96.0 Kbps
Channel(s)                       : 2 channels
Sampling rate                    : 48.0 KHz
Stream size                      : 79.1 MiB (9%)
Alignment                        : Aligned on interleaves
Interleave, duration             : 784 ms (18.80 video frames)
Interleave, preload duration     : 216 ms
Writing library                  : LAME3.97 (beta)


Audio #2
ID                               : 2
Format                           : MPEG Audio
Format version                   : Version 1
Format profile                   : Layer 3
Mode                             : Joint stereo
Mode extension                   : MS Stereo
Codec ID                         : 55
Codec ID/Hint                    : MP3
Duration                         : 1h 54mn
Bit rate mode                    : Constant
Bit rate                         : 128 Kbps
Channel(s)                       : 2 channels
Sampling rate                    : 44.1 KHz
Stream size                      : 104 MiB (12%)
Alignment                        : Aligned on interleaves
Interleave, duration             : 793 ms (19.01 video frames)
Interleave, preload duration     : 208 ms
Title                            : CurrentHD
Writing library                  : LAME3.96.1 
http://pic.phyrefile.com/m/ma/masta/2010/10/23/2myzspj.jpg.png
http://img40.imageshack.us/img40/6250/vlcsnap2010111616h27m01.png
http://img98.imageshack.us/img98/5590/vlcsnap2010111616h27m11.png
http://img408.imageshack.us/img408/7915/vlcsnap2010111616h27m35.png
http://img251.imageshack.us/img251/3503/vlcsnap2010111616h28m07.png
http://img19.imageshack.us/img19/5099/vlcsnap2010111616h28m13.png
http://img140.imageshack.us/img140/2713/vlcsnap2010111616h29m00.png
http://img607.imageshack.us/img607/6679/vlcsnap2010111616h29m46.png



